<svg width="18" height="18" viewBox="0 0 18 18" fill="none" xmlns="http://www.w3.org/2000/svg">
<path d="M7.7998 8.69922H10.1998V14.6992H7.7998V8.69922Z" fill="#408C7B"/>
<path d="M10.1998 5.99922V7.49922H7.7998V5.99922C7.7998 5.83353 7.93412 5.69922 8.0998 5.69922H9.8998C10.0655 5.69922 10.1998 5.83353 10.1998 5.99922Z" fill="#408C7B"/>
<path d="M10.1998 15.9004V17.4004C10.1998 17.5661 10.0655 17.7004 9.8998 17.7004H8.0998C7.93412 17.7004 7.7998 17.5661 7.7998 17.4004V15.9004H10.1998Z" fill="#408C7B"/>
<path d="M7.79981 6.03537V17.3814C7.79915 17.4822 7.74787 17.576 7.66331 17.631C7.57875 17.6859 7.47224 17.6947 7.37981 17.6544L0.479807 14.6184C0.370656 14.5715 0.29988 14.4642 0.299807 14.3454V2.99937C0.299374 2.89809 0.350432 2.80352 0.435353 2.74832C0.520273 2.69313 0.627422 2.68486 0.719807 2.72637L1.01381 2.85537L7.61981 5.76237C7.72949 5.8086 7.80054 5.91634 7.79981 6.03537Z" fill="#6AC3B0"/>
<path d="M7.61963 5.76245L1.01363 2.85545L0.719629 2.72645C0.63719 2.68921 0.542248 2.6917 0.461869 2.7332C0.381491 2.7747 0.324494 2.85068 0.307129 2.93945L6.71963 5.76245C6.82932 5.80868 6.90036 5.91643 6.89963 6.03546V17.3815C6.89925 17.4017 6.89674 17.4218 6.89213 17.4415L7.37963 17.656C7.47206 17.6963 7.57857 17.6875 7.66313 17.6325C7.74769 17.5776 7.79897 17.4838 7.79963 17.383V6.03546C7.80036 5.91643 7.72932 5.80868 7.61963 5.76245Z" fill="#408C7B"/>
<path d="M17.7002 2.99937V14.3454C17.7001 14.4642 17.6294 14.5715 17.5202 14.6184L10.6202 17.6544C10.5278 17.6947 10.4213 17.6859 10.3367 17.631C10.2521 17.576 10.2009 17.4822 10.2002 17.3814V6.03537C10.1995 5.91634 10.2705 5.8086 10.3802 5.76237L16.9862 2.85537L17.2802 2.72637C17.3726 2.68486 17.4797 2.69313 17.5647 2.74832C17.6496 2.80352 17.7006 2.89809 17.7002 2.99937Z" fill="#408C7B"/>
<path d="M16.986 2.8557L10.38 5.7627C10.2703 5.80892 10.1993 5.91667 10.2 6.0357V5.9997C10.2 5.83401 10.0657 5.6997 9.9 5.6997H9V4.7997C9 4.7997 9.003 4.7787 9.009 4.7397C9.153 4.1847 11.223 2.7057 14.1 1.8927C14.565 1.7607 15.051 1.6467 15.552 1.5567C15.7676 1.52164 15.9853 1.60531 16.122 1.7757L16.986 2.8557Z" fill="#FFE0B2"/>
<path d="M16.1219 1.7757C15.9853 1.60531 15.7675 1.52164 15.5519 1.5567C15.3935 1.5852 15.2393 1.62 15.0839 1.653C15.136 1.68653 15.1826 1.72792 15.2219 1.7757L16.0859 2.8557L9.62305 5.6997H9.89995C10.0656 5.6997 10.1999 5.83401 10.1999 5.9997V6.0357C10.1992 5.91667 10.2703 5.80892 10.3799 5.7627L16.9859 2.8557L16.1219 1.7757Z" fill="#DFC49C"/>
<path d="M9.00016 4.7997V5.6997H8.10016C7.93447 5.6997 7.80016 5.83401 7.80016 5.9997V6.0357C7.80089 5.91667 7.72985 5.80892 7.62016 5.7627L1.01416 2.8557L1.87816 1.7757C2.01481 1.60531 2.23258 1.52164 2.44816 1.5567C2.94916 1.6467 3.43516 1.7607 3.90016 1.8927C6.77716 2.7057 8.84716 4.1847 8.99116 4.7397C8.99716 4.7787 9.00016 4.7997 9.00016 4.7997Z" fill="#FFE0B2"/>
<path d="M8.9909 4.7398C8.8469 4.1848 6.7769 2.7058 3.8999 1.8928V0.299805C8.3339 1.1308 8.9279 4.26581 8.9909 4.7398Z" fill="#DFC49C"/>
<path d="M14.1003 0.299805V1.8928C11.2233 2.7058 9.15328 4.1848 9.00928 4.7398C9.07228 4.26581 9.66628 1.1308 14.1003 0.299805Z" fill="#DFC49C"/>
<path d="M16.5004 8.39941L11.4004 10.7994V7.79941L16.5004 5.39941V8.39941Z" fill="#F57C00"/>
<path d="M1.5 8.39941L6.6 10.7994V7.79941L1.5 5.39941V8.39941Z" fill="#FF9801"/>
<path d="M7.7998 7.5H10.1998V8.7H7.7998V7.5Z" fill="#FFDC00"/>
<path d="M9.2998 7.5H10.1998V8.7H9.2998V7.5Z" fill="#FEC108"/>
<path d="M7.7998 14.6992H10.1998V15.8992H7.7998V14.6992Z" fill="#FFDC00"/>
<path d="M9.2998 14.6992H10.1998V15.8992H9.2998V14.6992Z" fill="#FEC108"/>
<path d="M17.7279 2.49766C17.558 2.38668 17.3436 2.36908 17.1579 2.45086L17.0751 2.48746L16.3551 1.58746C16.1506 1.32974 15.8214 1.2047 15.4974 1.26166C15.1257 1.32826 14.7591 1.40986 14.3997 1.50166V0.299859C14.3998 0.21058 14.3601 0.125908 14.2914 0.0688592C14.2225 0.0122738 14.1322 -0.0111006 14.0445 0.00495917C10.7574 0.621159 9.4851 2.48686 9 3.68086C8.5134 2.48476 7.2408 0.620859 3.9552 0.00495917C3.86751 -0.011017 3.77723 0.0123484 3.7083 0.0688592C3.63963 0.125908 3.59993 0.21058 3.6 0.299859V1.50346C3.24 1.41076 2.874 1.32916 2.5023 1.26346C2.17824 1.20738 1.84939 1.33252 1.6446 1.58986L0.9246 2.48986L0.8418 2.45356C0.65671 2.37205 0.443014 2.38928 0.273366 2.49937C0.103719 2.60947 0.000949545 2.79762 0 2.99986V14.3447C4.7559e-05 14.5825 0.14055 14.7978 0.3582 14.8937L7.2582 17.9297C7.4259 18.0055 7.61979 17.9963 7.7796 17.9051C7.87512 17.9667 7.98633 17.9996 8.1 17.9999H9.9C10.0135 17.9996 10.1246 17.9668 10.2201 17.9054C10.3057 17.9532 10.4017 17.9792 10.4997 17.981C10.5831 17.9809 10.6655 17.9635 10.7418 17.93L17.6418 14.894C17.8596 14.7981 18.0001 14.5826 18 14.3447V2.99986C18.0002 2.79717 17.8978 2.60815 17.7279 2.49766ZM15.6033 1.85326C15.7107 1.83618 15.8191 1.87825 15.8868 1.96336L16.5069 2.73766L10.2579 5.48716C10.2492 5.49076 10.2429 5.49766 10.2342 5.50186C10.1355 5.43531 10.0191 5.39979 9.9 5.39986H9.3V4.82176V4.81066C9.4263 4.38796 11.9202 2.51206 15.6033 1.85326ZM9.9 5.99986V6.03616V7.19986H8.1V5.99986H9.9ZM8.1 7.79986H9.9V8.39986H8.1V7.79986ZM8.1 8.99986H9.9V14.3999H8.1V8.99986ZM8.1 14.9999H9.9V15.5999H8.1V14.9999ZM13.8 0.668259V1.67026C12.3294 2.09181 10.9378 2.75112 9.6801 3.62206C10.17 2.61286 11.2854 1.24006 13.8 0.668259ZM4.2 0.668259C6.7128 1.23826 7.8279 2.61076 8.319 3.62146C7.06159 2.75079 5.67022 2.09169 4.2 1.67026V0.668259ZM2.1132 1.96336C2.18099 1.8783 2.28927 1.83625 2.3967 1.85326C6.0732 2.51086 8.5641 4.38106 8.6967 4.79116L8.7012 4.82116V5.39986H8.1C7.98092 5.39979 7.86454 5.43531 7.7658 5.50186C7.7571 5.49766 7.7505 5.49076 7.7418 5.48686L1.4931 2.73766L2.1132 1.96336ZM0.6 14.3447V2.99986L7.5 6.03586V17.3807L0.6 14.3447ZM8.1 17.3999V16.1999H9.9V17.3999H8.1ZM10.5 17.3807V6.03616L17.4 2.99986V14.3447L10.5 17.3807Z" fill="#181818"/>
<path d="M16.6604 5.14643C16.5737 5.09131 16.4648 5.0844 16.3718 5.12813L11.2718 7.52813C11.1667 7.57764 11.0996 7.68342 11.0996 7.79963V10.7996C11.0996 10.9024 11.1521 10.998 11.2389 11.053C11.3256 11.1081 11.4345 11.1149 11.5274 11.0711L16.6274 8.67113C16.7326 8.62162 16.7996 8.51584 16.7996 8.39963V5.39963C16.7996 5.29697 16.7471 5.20145 16.6604 5.14643ZM16.1996 8.20913L11.6996 10.3268V7.99013L16.1996 5.87243V8.20913Z" fill="#181818"/>
<path d="M6.728 7.53015L1.628 5.13015C1.53529 5.0865 1.42672 5.09318 1.34007 5.14787C1.25342 5.20255 1.20068 5.29768 1.2002 5.40015V8.40015C1.20016 8.51636 1.26725 8.62214 1.3724 8.67165L6.4724 11.0716C6.51241 11.0904 6.55603 11.1001 6.6002 11.1001C6.76588 11.1001 6.9002 10.9658 6.9002 10.8001V7.80015C6.89965 7.68448 6.83265 7.57942 6.728 7.53015ZM6.3002 10.3273L1.8002 8.20965V5.87295L6.3002 7.99065V10.3273Z" fill="#181818"/>
<path d="M6.72807 12.0301L1.62807 9.63014C1.53108 9.58448 1.41709 9.59404 1.32905 9.65521C1.24101 9.71638 1.19229 9.81988 1.20125 9.92671C1.2102 10.0335 1.27548 10.1275 1.37247 10.1731L6.47247 12.5731C6.62242 12.6437 6.80119 12.5794 6.87177 12.4294C6.94236 12.2795 6.87802 12.1007 6.72807 12.0301Z" fill="#181818"/>
<path d="M6.12003 13.2423L2.23353 11.4123C2.13595 11.3637 2.01968 11.3719 1.92985 11.4336C1.84002 11.4954 1.79076 11.601 1.80118 11.7096C1.81161 11.8181 1.88008 11.9124 1.98003 11.9559L5.86623 13.7859C5.96355 13.8342 6.07934 13.826 6.16896 13.7647C6.25859 13.7033 6.30804 13.5983 6.29827 13.4901C6.28849 13.382 6.22101 13.2875 6.12183 13.2432L6.12003 13.2423Z" fill="#181818"/>
<path d="M16.3719 9.63021L11.2719 12.0302C11.1749 12.0759 11.1096 12.1698 11.1007 12.2766C11.0917 12.3835 11.1404 12.487 11.2285 12.5481C11.3165 12.6093 11.4305 12.6189 11.5275 12.5732L16.6275 10.1732C16.7774 10.1026 16.8418 9.92385 16.7712 9.77391C16.7006 9.62396 16.5218 9.55963 16.3719 9.63021Z" fill="#181818"/>
<path d="M15.7658 11.4131L11.8802 13.2422C11.7339 13.3148 11.6724 13.4911 11.742 13.6388C11.8116 13.7866 11.9867 13.8515 12.1358 13.7849L16.022 11.9549C16.1221 11.9113 16.1906 11.8167 16.2008 11.7079C16.211 11.5991 16.1613 11.4934 16.071 11.4319C15.9807 11.3704 15.8642 11.3629 15.7667 11.4122L15.7658 11.4131Z" fill="#181818"/>
</svg>
