<svg width="16" height="13" viewBox="0 0 16 13" fill="none" xmlns="http://www.w3.org/2000/svg">
<path d="M10.1818 7.95454C8.24 7.95454 4.36364 8.92182 4.36364 10.8636V12.3182H16V10.8636C16 8.92182 12.1236 7.95454 10.1818 7.95454ZM3.63636 5.04545V2.86363H2.18182V5.04545H0V6.5H2.18182V8.68182H3.63636V6.5H5.81818V5.04545M10.1818 6.5C10.9534 6.5 11.6933 6.19351 12.2389 5.64795C12.7844 5.10239 13.0909 4.36245 13.0909 3.59091C13.0909 2.81937 12.7844 2.07943 12.2389 1.53387C11.6933 0.988309 10.9534 0.681816 10.1818 0.681816C9.41028 0.681816 8.67034 0.988309 8.12478 1.53387C7.57922 2.07943 7.27273 2.81937 7.27273 3.59091C7.27273 4.36245 7.57922 5.10239 8.12478 5.64795C8.67034 6.19351 9.41028 6.5 10.1818 6.5Z" fill="black"/>
</svg>
